:SAMPLES-PER-SECOND 30
:FULLY-SPECIFIED
:DEGREES
169
root  -53.0603 39.6451 0.445246 -6.97205 -84.8279 16.727
RightUpLeg  -26.0372 -5.65897 -8.75164
RightLeg  22.1405 1.69104 0.486834
RightFoot  -7.28286 -0.388391 9.40095
RightToes  -4.65661e-009 0 -3.6325e-017
Spine  30.1925 1.60761 19.7493
Spine1  2.58528 12.291 -23.4618
HEad  -35.329 -36.1981 15.5227
LeftShoulder1  0.627012 1.68314 -28.3128
LeftArm  7.98691 7.70503 -40.8274
LeftForeArm  21.8099 -30.9953 -5.55966
LeftHand  -0.0335972 4.9109 2.43709
RightShoulder  0.470826 -0.320383 7.28581
RightArm  -41.6439 60.1066 9.9245
RightForeArm  -20.421 11.9094 -0.929058
RightHand  -0.422993 8.29195 -3.95768
LeftUpLeg  -28.1 2.16581 -2.94448
LeftLeg  12.9472 -10.0042 -3.50182
LeftFoot  7.76067 -0.980583 5.5414
LeftToes  9.86798e-010 -1.28139e-010 1.4132e-011
170
root  -53.4466 39.7934 0.373376 -4.62289 -84.232 14.6895
RightUpLeg  -24.1284 -5.40856 -8.60544
RightLeg  16.4292 2.85808 0.724955
RightFoot  -3.78795 -0.602243 8.90996
RightToes  -4.65661e-009 0 -3.6325e-017
Spine  29.8671 1.53895 19.6792
Spine1  2.30188 11.9791 -23.0886
HEad  -35.7117 -36.3385 15.8037
LeftShoulder1  0.629141 1.66923 -28.1669
LeftArm  7.26808 7.98412 -40.6165
LeftForeArm  22.0234 -31.8072 -5.74504
LeftHand  -0.0307301 5.11466 2.18238
RightShoulder  0.419696 -0.978868 9.33588
RightArm  -49.5031 56.683 14.6595
RightForeArm  -1.97853 22.4369 3.67226
RightHand  -0.353218 7.14836 -3.62871
LeftUpLeg  -27.0979 1.4302 -2.66137
LeftLeg  11.4758 -9.9647 -3.08834
LeftFoot  7.84642 -0.948984 5.32694
LeftToes  9.86798e-010 -1.28139e-010 1.4132e-011
171
root  -53.7947 39.9627 0.2666 -2.35535 -83.0556 12.7833
RightUpLeg  -22.9793 -7.35873 -7.71975
RightLeg  14.534 2.95836 0.496392
RightFoot  -1.00809 -0.54112 5.83245
RightToes  -4.65661e-009 0 -3.6325e-017
Spine  29.2643 1.55843 19.6074
Spine1  2.27678 11.319 -21.3891
HEad  -35.053 -36.6866 14.4676
LeftShoulder1  0.603962 1.76544 -28.621
LeftArm  6.45484 8.36447 -40.374
LeftForeArm  22.9976 -32.7551 -5.924
LeftHand  -0.0282305 5.35142 1.24521
RightShoulder  0.373755 -1.46771 11.324
RightArm  -49.5979 53.5154 18.5185
RightForeArm  4.21176 32.6958 7.16006
RightHand  -0.360471 5.86824 -4.01024
LeftUpLeg  -26.0042 0.835796 -2.62465
LeftLeg  9.49149 -10.6804 -2.68499
LeftFoot  8.44416 -0.941277 5.09994
LeftToes  9.86798e-010 -1.28139e-010 1.4132e-011
172
root  -54.0639 40.0833 0.116013 -1.07056 -81.9524 11.8474
RightUpLeg  -22.1834 -8.49697 -7.33388
RightLeg  13.3953 2.91277 0.398538
RightFoot  -0.248319 -0.496668 5.08634
RightToes  -4.65661e-009 0 -3.6325e-017
Spine  28.6521 1.63784 19.4267
Spine1  2.39689 10.7598 -19.8641
HEad  -35.1426 -36.6196 14.0085
LeftShoulder1  0.550107 1.9337 -28.9233
LeftArm  5.4788 8.65991 -40.5126
LeftForeArm  23.8897 -33.5722 -6.07836
LeftHand  -0.0221529 6.55553 1.19856
RightShoulder  0.30675 -1.95291 13.0059
RightArm  -48.5352 50.0911 23.0581
RightForeArm  5.22416 42.93 10.0912
RightHand  -0.433911 4.17872 -5.62979
LeftUpLeg  -25.3408 0.000467541 -2.61691
LeftLeg  8.06982 -10.9539 -2.03849
LeftFoot  8.91018 -0.888558 4.66683
LeftToes  9.86798e-010 -1.28139e-010 1.4132e-011
173
root  -54.3325 40.1397 -0.0405779 -1.62003 -81.4718 12.525
RightUpLeg  -21.8483 -9.03623 -7.22968
RightLeg  13.4191 2.92652 0.521106
RightFoot  -0.242454 -0.467384 4.79202
RightToes  -4.65661e-009 0 -3.6325e-017
Spine  28.1203 1.59827 19.6488
Spine1  2.73664 10.7517 -20.0468
HEad  -35.2524 -36.37 14.1645
LeftShoulder1  0.430821 2.28863 -29.3438
LeftArm  5.12573 8.4129 -40.1792
LeftForeArm  23.9006 -34.0694 -6.20528
LeftHand  -0.017584 6.57026 1.57987
RightShoulder  0.260696 -2.28388 14.8416
RightArm  -47.0167 47.2881 27.1638
RightForeArm  1.18361 49.9508 13.2654
RightHand  -0.761878 2.53849 -11.2874
LeftUpLeg  -24.9365 -0.347768 -2.63097
LeftLeg  7.79148 -10.9358 -1.74319
LeftFoot  8.73011 -0.868811 4.60562
LeftToes  9.86798e-010 -1.28139e-010 1.4132e-011
174
root  -54.5859 40.1732 -0.215937 -1.25388 -81.036 12.2169
RightUpLeg  -21.5105 -9.86469 -6.96158
RightLeg  13.5359 3.193 0.785646
RightFoot  -0.731543 -0.469518 4.99543
RightToes  -4.65661e-009 0 -3.6325e-017
Spine  27.4334 1.68517 19.5772
Spine1  3.02724 10.6768 -19.6347
HEad  -34.6023 -36.3567 13.9161
LeftShoulder1  0.342584 2.55402 -29.9536
LeftArm  5.13105 8.57956 -39.8666
LeftForeArm  23.8491 -34.4416 -6.30469
LeftHand  -0.0225326 6.36199 1.24573
RightShoulder  0.246728 -2.41561 16.4012
RightArm  -46.821 45.5552 29.1039
RightForeArm  3.51483 52.2942 14.3181
RightHand  -0.784319 3.0718 -10.9543
LeftUpLeg  -24.5644 -0.303879 -2.48992
LeftLeg  7.65705 -11.3688 -1.64771
LeftFoot  8.34106 -0.820141 4.43116
LeftToes  9.86798e-010 -1.28139e-010 1.4132e-011
175
root  -54.8303 40.1978 -0.387137 -2.11865 -80.7035 12.9253
RightUpLeg  -21.2191 -10.347 -6.83178
RightLeg  14.1304 3.29891 0.910444
RightFoot  -1.14546 -0.409671 4.50235
RightToes  -4.65661e-009 0 -3.6325e-017
Spine  26.6877 1.77281 18.8882
Spine1  3.46199 10.3654 -18.7413
HEad  -33.7111 -35.5641 13.107
LeftShoulder1  0.277311 2.73598 -30.0125
LeftArm  4.8683 9.3041 -40.3017
LeftForeArm  23.9126 -34.527 -6.32324
LeftHand  -0.0187307 6.5593 1.50767
RightShoulder  0.202738 -2.64352 17.5702
RightArm  -45.7879 45.8308 30.3005
RightForeArm  6.15561 49.6523 12.8167
RightHand  -0.729188 3.52324 -9.76933
LeftUpLeg  -23.9135 -0.424795 -2.45292
LeftLeg  7.45815 -11.6369 -1.41276
LeftFoot  7.8196 -0.742076 4.11278
LeftToes  9.86798e-010 -1.28139e-010 1.4132e-011
176
root  -55.0448 40.2218 -0.556118 -2.41849 -80.2666 13.0709
RightUpLeg  -20.7944 -10.2698 -6.72022
RightLeg  14.4449 2.78839 0.763095
RightFoot  -1.59451 -0.374776 4.26399
RightToes  -4.65661e-009 0 -3.6325e-017
Spine  26.0383 1.81361 18.6146
Spine1  3.55396 10.0875 -18.128
HEad  -33.27 -34.954 11.9103
LeftShoulder1  0.326178 2.59805 -29.9399
LeftArm  4.83109 10.0674 -40.8907
LeftForeArm  25.1481 -34.1306 -6.14832
LeftHand  -0.0299376 5.14305 1.89519
RightShoulder  0.140209 -2.91434 18.1337
RightArm  -44.1032 46.6063 30.0064
RightForeArm  11.8781 43.6277 9.91732
RightHand  -0.357934 5.4363 -4.13737
LeftUpLeg  -23.389 -0.731771 -2.42687
LeftLeg  7.37744 -11.6385 -1.04704
LeftFoot  7.40737 -0.694777 3.93324
LeftToes  9.86798e-010 -1.28139e-010 1.4132e-011
